HIERARCHY
ROOT Hips
{
	OFFSET 0.00000 0.00000 0.00000
	CHANNELS 6 Xposition Yposition Zposition Zrotation Yrotation Xrotation 
	JOINT LHipJoint
	{
		OFFSET 0 0 0
		CHANNELS 3 Zrotation Yrotation Xrotation
		JOINT LeftHip
		{
			OFFSET 1.28858 -1.83292 1.03970
			CHANNELS 3 Zrotation Yrotation Xrotation
			JOINT LeftKnee
			{
				OFFSET 2.47846 -6.80952 0.00000
				CHANNELS 3 Zrotation Yrotation Xrotation
				JOINT LeftAnkle
				{
					OFFSET 2.75274 -7.56311 0.00000
					CHANNELS 3 Zrotation Yrotation Xrotation
					JOINT LeftToe
					{
						OFFSET 0.12848 -0.35301 1.68223
						CHANNELS 3 Zrotation Yrotation Xrotation
						End Site
						{
							OFFSET 0.00000 -0.00000 0.87311
						}
					}
				}
			}
		}
	}
	JOINT RHipJoint
	{
		OFFSET 0 0 0
		CHANNELS 3 Zrotation Yrotation Xrotation
		JOINT RightHip
		{
			OFFSET -1.31183 -1.83292 1.03970
			CHANNELS 3 Zrotation Yrotation Xrotation
			JOINT RightKnee
			{
				OFFSET -2.44740 -6.72417 0.00000
				CHANNELS 3 Zrotation Yrotation Xrotation
				JOINT RightAnkle
				{
					OFFSET -2.67343 -7.34519 0.00000
					CHANNELS 3 Zrotation Yrotation Xrotation
					JOINT RightToe
					{
						OFFSET -0.16914 -0.46471 1.77626
						CHANNELS 3 Zrotation Yrotation Xrotation
						End Site
						{
							OFFSET -0.00000 -0.00000 0.92777
						}
					}
				}
			}
		}
	}
	JOINT lowerback
	{
		OFFSET 0 0 0
		CHANNELS 3 Zrotation Yrotation Xrotation
		JOINT Chest
		{
			OFFSET 0.01249 2.14252 0.03842
			CHANNELS 3 Zrotation Yrotation Xrotation
			JOINT Chest2
			{
				OFFSET -0.02957 2.14199 -0.03751
				CHANNELS 3 Zrotation Yrotation Xrotation
				JOINT lowerneck
				{
					OFFSET 0 0 0
					CHANNELS 3 Zrotation Yrotation Xrotation
					JOINT Neck
					{
						OFFSET -0.01678 1.65709 -0.05476
						CHANNELS 3 Zrotation Yrotation Xrotation
						JOINT Head
						{
							OFFSET 0.07912 1.58331 -0.11843
							CHANNELS 3 Zrotation Yrotation Xrotation
							End Site
							{
								OFFSET 0.03298 1.73940 -0.04271
							}
						}
					}
				}
				JOINT LeftCollar
				{
					OFFSET 0 0 0
					CHANNELS 3 Zrotation Yrotation Xrotation
					JOINT LeftShoulder
					{
						OFFSET 3.39556 1.16496 0.08673
CHANNELS 3 Zrotation Xrotation Yrotation
						JOINT LeftElbow
						{
OFFSET 0 -5.239100 -0.000000
CHANNELS 3 Zrotation Xrotation Yrotation
							JOINT LeftWrist
							{
OFFSET 0 -3.314670 0.000000
CHANNELS 3 Zrotation Xrotation Yrotation
								JOINT lhand
								{
									OFFSET 0 0 0
CHANNELS 3 Zrotation Xrotation Yrotation
									JOINT LFingers
									{
OFFSET 0 -0.965900 0.000000
CHANNELS 3 Zrotation Xrotation Yrotation
										End Site
										{
OFFSET 0 -0.778730 0.000000
										}
									}
								}
								JOINT LThumb
								{
OFFSET 0 0.000000 0.000000
CHANNELS 3 Zrotation Xrotation Yrotation
									End Site
									{
OFFSET 0 -0.790620 0.790620
									}
								}
							}
						}
					}
				}
				JOINT RightCollar
				{
					OFFSET 0 0 0
					CHANNELS 3 Zrotation Yrotation Xrotation
					JOINT RightShoulder
					{
						OFFSET -3.27193 1.31331 0.33940
CHANNELS 3 Zrotation Xrotation Yrotation
						JOINT RightElbow
						{
OFFSET 0 -5.302520 0.000000
CHANNELS 3 Zrotation Xrotation Yrotation
							JOINT RightWrist
							{
OFFSET 0 -3.678750 0.000000
CHANNELS 3 Zrotation Xrotation Yrotation
								JOINT rhand
								{
									OFFSET 0 0 0
CHANNELS 3 Zrotation Xrotation Yrotation
									JOINT RFingers
									{
OFFSET 0 -0.594810 0.000000
CHANNELS 3 Zrotation Xrotation Yrotation
										End Site
										{
OFFSET 0 -0.479550 0.000000
										}
									}
								}
								JOINT RThumb
								{
OFFSET 0 0.000000 0.000000
CHANNELS 3 Zrotation Xrotation Yrotation
									End Site
									{
OFFSET 0 -0.486870 0.486870
									}
								}
							}
						}
					}
				}
			}
		}
	}
}
MOTION
Frames: 6
Frame Time: 0.008333333333333333
10.686600 28.094100 -33.780300 -0.402900 -2.830600 8.451200 0.000000 0.000000 0.000000 -17.183500 -8.479300 -9.627500 1.051200 6.519600 18.299600 -0.259200 -11.433700 -3.367400 0.913300 6.089400 17.044100 0.000000 0.000000 0.000000 21.093800 4.222000 -2.264100 -0.126600 -2.294000 6.319000 -0.416600 -9.225400 -18.850100 -0.206600 2.926200 -8.073400 4.157900 -0.449200 -3.005000 0.432300 -0.785300 1.199900 -1.928400 -0.318400 2.872900 -6.852000 -9.409600 0.389000 4.946500 -12.693000 4.107000 2.465700 -6.366600 2.067900 -0.000000 0.000000 0.000000 8.021400 3.471600 -30.488200 17.600000 -27.642000 4.362100 12.902600 -8.688300 12.627800 0.000000 0.000000 0.000000 -7.125000 0.000000 0.000000 -9.942900 17.154700 -6.669700 -0.000000 0.000000 0.000000 -6.646100 6.511800 16.151900 -13.517400 -22.040600 -2.644300 -8.496700 22.192100 36.487000 0.000000 0.000000 0.000000 7.125000 0.000000 -0.000000 31.768500 64.012100 -15.387500
10.690390 28.084451 -33.788100 -0.583099 -3.420949 8.814101 0.000000 0.000000 0.000000 -17.262533 -7.891135 -9.982942 1.011931 6.400256 17.950363 -0.220566 -11.235326 -3.983039 0.859426 5.911155 16.527152 0.000000 0.000000 0.000000 20.852520 4.900595 -2.325923 -0.123179 -2.262877 6.232573 -0.419205 -9.125502 -18.779284 -0.207649 2.931601 -8.088436 4.116172 -0.254296 -3.049418 0.541473 -0.527635 1.152889 -1.779018 -0.192688 2.867022 -6.514238 -8.938677 0.891391 4.393725 -12.037466 2.739665 2.312695 -6.042796 1.423784 0.000000 0.000000 0.000000 8.151389 3.640951 -31.477005 17.692292 -27.761301 4.404969 11.829055 -8.504489 12.671797 0.000000 0.000000 0.000000 -7.125000 0.000000 0.000000 -10.681610 17.178510 -7.177198 0.000000 0.000000 0.000000 -7.091475 6.750212 17.751135 -13.508805 -22.028114 -2.641064 -5.647411 16.893547 31.910313 0.000000 0.000000 0.000000 7.125000 0.000000 0.000000 29.896524 59.436958 -11.151092
10.692845 28.072204 -33.791984 -0.862696 -4.100729 9.013956 0.000000 0.000000 0.000000 -17.376729 -7.100585 -9.972094 0.951255 6.211102 17.398239 -0.186333 -11.167523 -4.623261 0.719506 5.419142 15.108332 0.000000 0.000000 0.000000 20.677659 5.486051 -2.437105 -0.128153 -2.307241 6.355471 -0.403243 -9.131380 -18.606106 -0.286614 3.441921 -9.511652 3.981817 -0.033855 -2.904565 0.654408 -0.222669 1.103459 -1.570520 -0.047109 2.753542 -6.506853 -9.014936 1.015862 4.675462 -12.162141 3.020364 2.397778 -6.105189 1.521293 0.000000 0.000000 0.000000 8.370518 4.060567 -32.434446 18.107494 -28.294373 4.600167 10.275553 -8.058178 12.875175 0.000000 0.000000 0.000000 -7.125000 0.000000 0.000000 -11.742108 17.068025 -7.948510 0.000000 0.000000 0.000000 -7.332425 6.889005 18.759873 -13.481203 -21.988129 -2.630696 -1.956321 11.893859 26.387693 0.000000 0.000000 0.000000 7.125000 0.000000 0.000000 29.117255 53.903391 -6.816816
10.692364 28.063326 -33.804184 -1.070818 -4.794458 9.130869 0.000000 0.000000 0.000000 -17.606967 -6.365127 -10.008937 0.914418 6.092984 17.054424 -0.157042 -11.122908 -5.154572 0.599283 4.955527 13.781812 0.000000 0.000000 0.000000 20.388809 5.889001 -2.759457 -0.145996 -2.461743 6.783641 -0.381874 -8.927069 -18.154765 -0.364030 3.874136 -10.723047 3.741775 0.154612 -2.641923 0.706169 0.048180 1.140911 -1.368935 0.082012 2.658740 -6.487469 -8.983829 1.049964 5.011222 -12.137421 3.139902 2.503019 -6.090545 1.576845 0.000000 0.000000 0.000000 8.684755 4.386533 -33.324121 18.570699 -28.881586 4.821859 9.475876 -7.850870 12.867100 0.000000 0.000000 0.000000 -7.125000 0.000000 0.000000 -12.289790 17.120744 -8.322114 0.000000 0.000000 0.000000 -7.488847 6.781868 19.239360 -13.399015 -21.869061 -2.600056 0.544487 9.095136 22.703180 0.000000 0.000000 0.000000 7.125000 0.000000 0.000000 29.088784 50.263674 -4.076444
10.689160 28.058229 -33.823798 -1.161914 -5.301299 9.179006 0.000000 0.000000 0.000000 -17.965769 -5.907823 -10.198332 0.920709 6.113323 17.113579 -0.139063 -11.086202 -5.459261 0.628006 5.069080 14.106096 0.000000 0.000000 0.000000 19.970422 6.136180 -3.309624 -0.181072 -2.739580 7.554595 -0.359715 -8.718081 -17.682731 -0.462442 4.360442 -12.093269 3.300426 0.197970 -2.238962 0.769956 0.138039 1.139081 -1.052980 0.115413 2.432418 -6.601113 -8.853234 1.240917 5.338671 -11.988644 3.246809 2.641492 -6.017775 1.601753 0.000000 0.000000 0.000000 8.890067 4.806424 -33.948592 18.953309 -29.360439 5.007950 9.667420 -7.822310 12.802096 0.000000 0.000000 0.000000 -7.125000 0.000000 0.000000 -12.161336 17.174493 -8.216352 0.000000 0.000000 0.000000 -7.689398 6.653218 19.190584 -13.289714 -21.710244 -2.559454 1.092543 8.579737 21.597531 0.000000 0.000000 0.000000 7.125000 0.000000 0.000000 28.949754 49.212261 -3.255291
10.683298 28.057012 -33.846764 -1.154240 -5.564771 9.189002 0.000000 0.000000 0.000000 -18.375779 -5.739358 -10.541653 0.963358 6.249343 17.509594 -0.133249 -11.002832 -5.487574 0.850723 5.877927 16.431905 0.000000 0.000000 0.000000 19.475156 6.259831 -4.015364 -0.230509 -3.089051 8.526869 -0.336153 -8.625398 -17.303712 -0.566042 4.817785 -13.389811 2.765065 0.153337 -1.767477 0.799522 0.111667 1.185400 -0.725058 0.091146 2.211588 -6.620923 -8.748234 1.299249 5.550916 -11.859499 3.254608 2.721642 -5.952681 1.602907 0.000000 0.000000 0.000000 9.081553 5.028746 -34.436231 19.159056 -29.615780 5.109232 10.280532 -8.031686 12.890836 0.000000 0.000000 0.000000 -7.125000 0.000000 0.000000 -11.738216 17.052131 -7.949745 0.000000 0.000000 0.000000 -7.758293 6.404186 18.582389 -13.211111 -21.595808 -2.530424 0.742424 9.086989 21.569692 0.000000 0.000000 0.000000 7.125000 0.000000 0.000000 28.622585 49.239658 -3.233089
